<svg width="640" height="480" viewBox="0 0 640 480" fill="none" xmlns="http://www.w3.org/2000/svg">
  <rect width="640" height="480" rx="48" fill="#FFF0F6"/>
  <path d="M180 350C180 320 230 280 320 280C410 280 460 320 460 350V370H180V350Z" fill="#F9A8D4"/>
  <path d="M320 280C260 270 240 210 260 160C280 110 320 90 360 110C400 130 420 190 380 250C350 284 330 293 320 280Z" fill="#FCE7F3"/>
  <path d="M358 188C370 186 382 190 392 198C402 206 408 218 403 230C397 242 384 250 371 248C358 246 345 238 337 227C329 216 326 202 331 190C336 178 348 180 358 188Z" fill="#F472B6"/>
  <path d="M255 220C267 214 285 212 302 218C319 224 330 238 330 254C330 270 318 283 303 288C288 293 270 291 260 281C250 271 248 248 255 220Z" fill="#F9C0D8"/>
  <circle cx="230" cy="163" r="20" fill="#FB7185"/>
  <circle cx="390" cy="152" r="18" fill="#C084FC"/>
  <circle cx="312" cy="103" r="22" fill="#FFF1F7"/>
  <path d="M190 370H460V390C460 402 450 412 438 412H212C200 412 190 402 190 390V370Z" fill="#F0ABFC"/>
</svg>
